PathFileType	3	(X/Y/Z)	E:\ViconData\BIOM9541 2025\Week 7\Wed1100\Hanif 90 squat 7-5 Squat 01.trc
DataRate	CameraRate	NumFrames	NumMarkers	Units	OrigDataRate	OrigDataStartFrame	OrigNumFrames
200.0	200.0	15	19	mm	200.0	208	1661	
Frame#	Time	C7			CLAV			RBAK			LASI			RASI			LPSI			RPSI			LTHI			LKNE			LTIB			LANK			LHEE			LTOE			RTHI			RKNE			RTIB			RANK			RHEE			RTOE			
		X1	Y1	Z1	X2	Y2	Z2	X3	Y3	Z3	X4	Y4	Z4	X5	Y5	Z5	X6	Y6	Z6	X7	Y7	Z7	X8	Y8	Z8	X9	Y9	Z9	X10	Y10	Z10	X11	Y11	Z11	X12	Y12	Z12	X13	Y13	Z13	X14	Y14	Z14	X15	Y15	Z15	X16	Y16	Z16	X17	Y17	Z17	X18	Y18	Z18	X19	Y19	Z19	
208	1.035	338.14371	1233.9224	-1206.3096	191.33305	1161.8188	-1193.0586	350.59515	1154.8307	-1357.6633	244.23567	793.72955	-1079.125	230.86055	805.28607	-1338.5358	409.89511	856.23901	-1167.1415	407.07947	853.51447	-1241.2893	200.45862	530.21014	-943.70581	156.47569	397.52469	-928.06628	243.56691	206.8445	-930.89502	304.53738	64.2061	-965.78674	330.07343	51.683685	-1024.8811	163.56502	38.794163	-947.18652	266.14163	679.18091	-1421.4297	165.73776	394.91324	-1481.2192	195.81567	311.4624	-1487.9628	296.60126	72.351494	-1435.0909	321.85461	50.668835	-1366.3823	162.25063	40.274754	-1464.7745
209	1.04	338.03522	1230.9133	-1206.2849	191.35188	1158.532	-1193.1388	350.75894	1151.7772	-1357.65	245.04849	790.56586	-1079.1602	231.50133	802.38959	-1338.6162	410.57477	853.20825	-1167.0785	407.65396	850.26318	-1241.3267	199.79086	528.99121	-943.20642	154.69247	396.78125	-926.99127	242.63168	206.41626	-930.43628	304.46634	64.224159	-965.81335	329.93558	51.690216	-1024.9037	163.56113	38.779758	-947.18732	266.43536	677.18628	-1421.7268	163.78596	394.04034	-1482.329	194.11172	310.70352	-1488.7885	296.40665	72.450249	-1435.1112	321.76904	50.804394	-1366.2855	162.29221	40.312553	-1464.7865
210	1.045	337.94089	1227.8447	-1206.249	191.34195	1155.2682	-1193.2017	350.88324	1148.7205	-1357.6071	245.7737	787.4776	-1079.2407	232.19577	799.33539	-1338.6595	411.32806	850.14716	-1167.2982	408.48099	847.68182	-1241.3544	199.12093	528.36981	-942.25385	152.91084	395.9556	-925.97455	241.74567	205.98824	-930.08295	304.3877	64.259071	-965.88568	329.69946	51.559471	-1024.8032	163.56038	38.795685	-947.164	266.69421	675.1886	-1421.9771	161.83568	392.97675	-1483.2982	192.39406	309.89944	-1489.5724	296.245	72.392838	-1435.1661	321.68823	50.879601	-1366.2943	162.30222	40.297523	-1464.781
211	1.05	337.84323	1224.7617	-1206.2393	191.28596	1152.0311	-1193.2872	350.99124	1145.6007	-1357.6454	246.50821	784.45398	-1079.1761	232.86533	796.24957	-1338.5515	412.08304	847.0484	-1167.627	409.46353	844.35712	-1242.0168	198.19263	526.65131	-942.01416	151.13577	395.17786	-924.97369	240.80232	205.62038	-929.65051	304.30511	64.296112	-965.93976	329.42667	51.370636	-1024.744	163.57935	38.809807	-947.21106	266.86765	673.16125	-1422.3018	159.85661	391.96274	-1484.2688	190.71013	309.10419	-1490.4023	296.03317	72.34655	-1435.1671	321.59555	50.900818	-1366.274	162.34474	40.204765	-1464.7074
212	1.055	337.67047	1221.6885	-1206.1886	191.25034	1148.7041	-1193.2576	350.96014	1142.4404	-1357.5521	247.35132	781.32635	-1079.2426	233.45348	793.19281	-1338.5552	412.7832	843.98926	-1167.8639	410.073	841.28027	-1242.1771	197.32355	525.3396	-941.51526	149.34628	394.32144	-923.99158	239.86932	205.14969	-929.28693	304.22437	64.304825	-966.02228	329.98141	52.048084	-1025.3059	163.56923	38.822769	-947.20538	267.05124	671.12823	-1422.5569	157.8847	390.99911	-1485.2386	189.01167	308.3338	-1491.1726	295.84369	72.289757	-1435.1387	321.41541	50.879627	-1366.1582	162.327	40.254326	-1464.7292
213	1.06	337.51266	1218.5811	-1206.1797	191.17783	1145.4175	-1193.3033	350.92987	1139.3353	-1357.5541	248.10048	778.22235	-1079.332	234.02312	790.2547	-1338.6598	413.4762	840.88281	-1167.947	410.51938	838.51782	-1241.9365	196.5069	524.41516	-940.94977	147.57767	393.41415	-923.05237	239.03328	204.72035	-928.93866	304.14737	64.281746	-966.07709	328.83292	51.074257	-1024.5896	163.48981	38.879105	-947.20587	267.19147	669.13538	-1422.7842	155.97867	390.10922	-1486.1993	187.25818	307.58627	-1491.8915	295.60913	72.302162	-1435.1721	321.3103	50.971516	-1366.1044	162.32898	40.317341	-1464.6827
214	1.065	337.36597	1215.4736	-1206.1735	191.08675	1142.0043	-1193.2469	350.93362	1136.2091	-1357.5714	248.88058	775.11884	-1079.3073	234.61798	787.15051	-1338.5691	414.12714	837.88745	-1168.0588	411.39816	835.17688	-1242.4952	195.48149	522.93958	-940.62708	145.8549	392.57773	-922.09955	238.16249	204.22562	-928.59387	304.414	64.756821	-966.22321	330.57614	52.734341	-1025.7817	163.53366	38.913769	-947.17578	267.33307	667.09338	-1423.0032	154.06378	389.13782	-1487.075	185.59503	306.81339	-1492.5449	295.43176	72.337204	-1435.1406	321.18127	51.034187	-1365.9377	162.30232	40.403973	-1464.6637
215	1.07	337.18216	1212.2478	-1206.1936	191.03958	1138.5697	-1193.3234	350.90451	1133.0135	-1357.5881	249.67334	772.04706	-1079.3782	235.28023	784.03613	-1338.6189	414.80228	834.79218	-1168.0731	411.93021	831.9353	-1242.67	194.56429	521.78986	-940.21985	144.10574	391.69315	-921.24915	237.36884	203.92633	-928.21265	303.9664	64.288239	-966.08795	328.37833	50.943226	-1024.4169	163.5694	38.904057	-947.18188	267.51614	665.1004	-1423.186	152.21346	388.12573	-1487.9072	184.00792	306.0069	-1493.2175	295.25842	72.32135	-1435.1917	321.07877	51.089699	-1365.9424	162.33723	40.414139	-1464.6573
216	1.075	337.02161	1209.0209	-1206.2205	190.95758	1135.1173	-1193.3964	350.93045	1129.8333	-1357.6289	250.49084	769.00055	-1079.5365	235.86066	780.8924	-1338.623	415.51279	831.79956	-1168.6339	412.68713	828.97876	-1242.9657	193.946	521.0105	-939.97491	142.4422	390.83023	-920.44647	236.57089	203.53847	-927.8924	304.38577	64.957268	-966.30402	330.85867	53.393539	-1026.3062	163.59143	38.895	-947.20404	267.72626	662.92096	-1423.3536	150.42834	387.08728	-1488.771	182.48335	305.17224	-1493.9125	295.09915	72.280914	-1435.1813	321.11041	51.157482	-1366.0486	162.37401	40.334797	-1464.6011
217	1.08	336.8541	1205.8229	-1206.2727	190.88147	1131.723	-1193.5414	350.84976	1126.6091	-1357.6055	251.23033	765.76294	-1079.5541	236.50328	777.68414	-1338.6577	416.18353	828.70221	-1168.8217	413.40689	826.17828	-1243.1233	192.7834	519.48529	-939.48157	140.79219	390.05887	-919.54926	235.81535	203.15666	-927.58783	303.70117	66.758347	-963.56696	330.7265	53.215351	-1026.1958	163.58775	38.87825	-947.2157	267.93097	660.77637	-1423.4867	148.74045	386.06342	-1489.6801	180.98936	304.30743	-1494.5806	294.94708	72.286964	-1435.1681	320.98203	51.201084	-1365.9661	162.39275	40.317917	-1464.5668
218	1.085	336.65848	1202.6428	-1206.3279	190.81557	1128.301	-1193.5791	350.77921	1123.4297	-1357.7051	251.25998	763.08545	-1077.9707	237.14169	774.49969	-1338.6733	416.83984	825.65857	-1168.7968	413.98792	822.89154	-1243.3448	191.96902	518.38348	-939.06769	139.26343	389.18686	-918.73358	235.11649	202.7933	-927.28162	304.32858	65.007217	-966.51831	330.52982	53.038342	-1026.0525	163.58519	38.863377	-947.21411	268.13721	658.71375	-1423.6289	147.07056	385.10172	-1490.5312	179.52103	303.56662	-1495.255	294.61392	72.154396	-1435.0612	321.14615	51.641891	-1365.8529	162.40366	40.326946	-1464.4978
219	1.09	336.38391	1199.3926	-1206.2886	190.67751	1124.9012	-1193.6571	350.54248	1120.1707	-1357.6711	252.68971	759.48376	-1079.5171	237.74461	771.34448	-1338.707	417.45856	822.62646	-1168.8594	414.55167	819.59363	-1243.5397	191.16571	517.09729	-938.59534	137.74095	388.33728	-917.8302	234.39294	202.49767	-926.92267	304.24158	65.075264	-966.51062	330.25821	53.57766	-1026.5033	163.60689	38.867935	-947.20746	268.36697	656.59717	-1423.7914	145.37537	384.16293	-1491.2949	178.11488	302.85217	-1495.8939	294.66266	72.360397	-1435.182	320.746	51.298038	-1365.6824	162.4315	40.373135	-1464.4662
220	1.095	336.13806	1196.1368	-1206.3029	190.54861	1121.4203	-1193.6478	350.49667	1116.9957	-1357.8053	253.39743	756.21118	-1079.6381	238.39041	768.13	-1338.9187	418.1633	819.52112	-1169.2104	415.24326	816.62946	-1243.7164	190.53951	515.87323	-938.16998	136.35295	387.59558	-916.86456	233.71448	202.07903	-926.63422	304.18597	65.168587	-966.51251	330.2254	53.557949	-1026.5818	163.58093	38.878437	-947.16064	268.60455	654.60345	-1423.8987	143.73895	383.19724	-1492.113	176.76474	302.08908	-1496.5481	294.32358	72.14872	-1435.0558	320.96848	51.72427	-1365.7605	162.43817	40.368839	-1464.4515
221	1.1	335.93503	1192.9437	-1206.3857	190.38864	1117.962	-1193.7311	350.27328	1113.7147	-1357.7313	254.08063	753.02429	-1079.6807	239.06995	764.86816	-1338.9631	418.8685	816.35425	-1169.5831	415.96646	813.72919	-1243.9229	189.9509	514.73877	-937.65137	134.94078	386.77051	-915.87164	233.00989	201.7272	-926.26398	304.27789	65.313034	-966.62878	330.32492	53.089832	-1026.303	163.59187	38.901314	-947.1889	268.92877	652.45477	-1424.1552	142.23032	382.18439	-1493.0115	175.40491	301.24786	-1497.1759	294.21545	72.029884	-1435.0438	320.97366	51.750378	-1365.8175	162.50807	40.321884	-1464.4478
222	1.105	335.7193	1189.7271	-1206.4619	190.24263	1114.4808	-1193.7786	350.15497	1110.4932	-1357.9098	254.88106	749.84106	-1079.9078	239.71912	761.68945	-1339.2037	419.5126	813.1333	-1169.8083	416.64554	810.70404	-1244.0952	189.46632	513.51129	-937.18518	133.62802	386.04459	-914.90228	232.43932	201.44931	-925.94299	304.20676	65.354836	-966.72388	330.0542	53.035107	-1026.425	163.58109	38.927235	-947.26788	269.30878	650.24835	-1424.3713	140.60178	381.13205	-1493.8018	174.07341	300.39755	-1497.8171	294.08163	71.944809	-1435.0458	320.92493	51.796978	-1365.8239	162.56374	40.283146	-1464.4142
